<?xml version="1.0" encoding="UTF-8"?>
<svg id="Layer_1" xmlns="http://www.w3.org/2000/svg" xmlns:xlink="http://www.w3.org/1999/xlink" version="1.1" viewBox="0 0 1024 1024">
  <!-- Generator: Adobe Illustrator 29.3.1, SVG Export Plug-In . SVG Version: 2.1.0 Build 151)  -->
  <defs>
    <style>
      .st0 {
        fill: #adb2d6;
      }

      .st1 {
        fill: #fffceb;
      }

      .st2 {
        fill: #47669a;
      }

      .st3 {
        fill: url(#linear-gradient1);
      }

      .st4 {
        fill: #c4799e;
      }

      .st5 {
        fill: #349dcf;
      }

      .st6 {
        fill: #5bb4ff;
      }

      .st7 {
        fill: #92d6e7;
      }

      .st8 {
        fill: url(#linear-gradient);
      }

      .st9 {
        fill: #e0b2ce;
      }

      .st10 {
        fill: #ac4476;
      }

      .st11 {
        fill: #8ab1d4;
      }

      .st12 {
        fill: #e9ebeb;
      }

      .st13 {
        fill: #727096;
      }

      .st14 {
        fill: #fff;
      }

      .st15 {
        fill: #7b82a9;
      }

      .st16 {
        fill: #982959;
      }

      .st17 {
        fill: #dd4e85;
      }

      .st18 {
        fill: #1162a7;
      }

      .st19 {
        fill: #dd8db3;
      }

      .st20 {
        fill: #327dbb;
      }

      .st21 {
        fill: #6c9041;
      }

      .st22 {
        fill: #94c583;
      }

      .st23 {
        fill: #7c7e96;
      }

      .st24 {
        fill: #96a1ad;
      }
    </style>
    <linearGradient id="linear-gradient" x1="418.8" y1="778.9" x2="248.2" y2="846.2" gradientTransform="translate(0 1024) scale(1 -1)" gradientUnits="userSpaceOnUse">
      <stop offset="0" stop-color="#d8d0da"/>
      <stop offset="1" stop-color="#fff"/>
    </linearGradient>
    <linearGradient id="linear-gradient1" x1="261.1" y1="443.3" x2="237.5" y2="445.8" gradientTransform="translate(0 1024) scale(1 -1)" gradientUnits="userSpaceOnUse">
      <stop offset="0" stop-color="#a52859"/>
      <stop offset="1" stop-color="#bf4477"/>
    </linearGradient>
  </defs>
  <path class="st23" d="M319.7,148.5c4.1-11.2,10-20.2,21.3-25.3,8.5-3.9,18.5-4.5,27.2-1.2,8.9,3.4,16.7,10.8,20.5,19.5,3.5,8.1,3.9,16.4,1.3,24.8,6.3.6,11.6,2.5,15.7,7.6,4,5,5,11,4.9,17.3,7.6,1.7,14.1,5.2,18.3,12.1,3.3,5.4,4,12,2.3,18.1-2.2,7.9-7.2,12.4-13.5,17.1,3.5,2.8,5.7,6.1,8.1,9.8,13.3-2.3,25.8-5.7,38.1-11.4,8.1-3.8,16.6-9.9,25.4-11.7,4.4-.9,8.5,0,12.2,2.6,3.8,2.7,6.2,6.5,8.7,10.3,9.5-4.4,18.8-10.9,29.7-7.1,2.8,1,5.1,2.6,7.5,4.3,20.1-13.7,77.6-50.2,101.9-46.1,4.8.8,9.1,3.4,11.9,7.5,2.5,3.6,2.8,8.2,1.8,12.4-.5,2.2-1.4,4.3-2.3,6.3,15.4,22.1,24.4,48.5,41.3,69.4,6.8,8.5,15.7,16.4,24.4,23.1,16.7,12.8,36.9,22.2,53.5,35.1,5.1-15.3,9.4-31,1.7-46.2-1.6-3.2-3.7-6.8-6.1-9.5-2.6-2.9-7.7-5.8-9.2-9.3-.9-2.2-.5-5.1-1.2-7.6-.6-2.3-1.7-4.8-.9-7.2,1.1-3.6,5.6-5.9,8.8-7.2,5.4-2.2,11.1-3.5,16.4-5.8.6-9.4.4-25.2,8.1-31.9,3-2.6,6.7-3.2,10.6-2.8,5.4.6,10,3.6,13.3,7.8,6,7.7,4.3,21.3,15.8,23,7.1,1,15.9.2,20.9,6.5,2.9,3.7,4.3,9.6,3.6,14.2-.5,3.2-1.9,5.8-4.6,7.7-5.6,3.9-17.5,1.8-19.2,9.5-1.9,8.5-1.4,17.8-9.5,23.4-3.1,2.2-7.6,2.8-11.3,2-1.5-.3-2.7-1-4-1.7,2.9,21.9,6.1,43.2,5.5,65.4l.5.3c8.8,4.8,18.4,8.6,27.5,12.7,20.8,9.5,41.5,18.7,62.1,28.7,9.7,4.7,20.1,9.2,29,15.3,3.7,2.5,8.3,6,9.8,10.4.9,2.7.6,5.5-.7,8-1.4,2.7-4.1,4.2-6.9,5-3,.9-6.2.9-9.3,1-.1,3.9-.6,6.9-3.6,9.7-1.4,1.2-3,2.1-4.6,3.1,5.3,10.8,6.7,21.2,2.8,32.7-1.6,4.7-4.1,9.1-6.9,13.2-4.1,6.1-16.2,18.2-13.4,25.8,5.2,5,15.9,6,22.7,8,11.4,3.5,32.7,12.1,33,26.6.1,5-2.7,9.5-6.2,12.9-2.1,2-4.4,3.9-6.8,5.7,3.3,9.4,4.1,19-.3,28.2-8.9,18.3-29.8,20.7-40.3,34.2-7.2,9.3-9.5,22.6-21.7,27-9,3.2-17.4.3-25.9-2.4-5.4,15.9-8.6,32.4-13,48.5l-25.4,93.1c-3.2,12.1-8.7,37.7-13.9,47.7-5.6,10.7-16,19.7-26.7,25-17.2,8.4-47.7,10.3-67.1,12.9-71.7,9.2-143.9,13.6-216.2,13.2-39-.7-78-2.9-116.8-6.3-33-2.5-65.9-6-98.7-10.3l-29.6-4c-7.4-1-15-1.2-22.1-3.7-13.6-4.7-23.6-14.3-29.7-27.2-3.2-6.7-4.6-14.1-6.5-21.3-2.7-10.4-5.5-20.7-8.1-31.1-2.9-11.7-6.4-23.3-9.1-35-8.2-35.3-15-71-24.3-106-11.7-1.3-23.4-2.7-35-4.3-10.5-1.4-21.4-2.4-31.4-5.9-5.1-1.8-10.5-4.5-14-8.7-7.6-9.1-6.7-23.8-5.5-34.8,3.5-30.8,19.2-66.5,37.1-91.6-11.9-17-23.5-25-19.5-47.7,1.4-8.1,5.1-15.7,0-23.4-2.6-3.9-6.2-7-9.3-10.4-5.5-6.2-10.3-15.5-9-23.9.8-5.1,3.8-10.7,8.1-13.7,4.7-3.3,10-3.1,15.4-2.4.6-7.4,2-14.8,8-19.9,4.6-3.9,10.9-5.3,16.8-5.6,6.6-36.3,14.9-53.2,45.1-75.5,9.5-7,18.6-13.8,25.8-23.3,2.9-3.8,5.7-7.9,7.6-12.3,3.2-7.4,3.9-18.4,11.1-23.2,4.2-2.8,9.6-2.6,14.3-1.5,4.1.9,7.3,2.9,9.6,6.5,3.8,6.3,2.5,15,.6,21.7-7,24.8-26,38.7-45.8,53-6.7,4.8-13.6,9.7-18.6,16.3-5.1,6.7-7.9,14.4-9.6,22.6-.7,3.4-2.1,10.4-.4,13.6,1.1,1.9,3.2,3.6,4.8,5.1,5.6,4.9,9.1,10.7,13.5,16.6,3.2,4.2,6.8,8.2,10.3,12.2,10.5-4.1,19.2-11,29.3-15.8l1.7-.4c1.5-16,4.4-36.1,17.1-47.4,4.5-4,9.8-7.7,13.1-12.9,3.9-6.3,4.5-15.3,10.3-20.2,4.1-3.4,9.5-3.4,14.5-2.8,5.7.7,11.3,2.6,16.2,5.6-3.3-11.3-10.1-24.2-18.4-32.7-7.9-1.9-14.8-7-18.9-14-4.4-7.3-6.2-16.3-4-24.7,1.7-6.5,5.2-11.6,9.4-16.8-9.6-5.4-15.9-12.2-18.9-23-2.6-9.2-1.4-19.1,3.4-27.5,4.9-8.7,13.1-15.1,22.7-17.7,5.4-1.5,10.7-1.6,16.2-.9,4.2-8,11-14.6,19.7-17.4,8.7-2.9,16.3-1.3,24.4,2.6Z"/>
  <path class="st12" d="M211.3,398.7l1.7-.4v5.3c-2.8.9-5.7,1.8-8.5,2.8,1.9-1.9,6.2-5.2,6.9-7.7Z"/>
  <path class="st11" d="M251.2,584.2c13.8,2.6,27.7,5.5,41.6,7.8,92.6,15.9,186.7,21.6,280.6,17.1,25.2-1.4,50.3-4.1,75.4-6.9,25.9-2.8,51.8-6.4,77.5-10.9,14.7-2.5,29.5-5,43.9-8.7.4,5.4.7,11,0,16.4-.7,7.1-1.4,14.1-2,21.2-9.4,2.8-15.4,8.7-20,17.3-15.2,28.1-17.1,75.3-23.6,107.1,19.4-1.5,38.2-6.9,57.3-10.4,3.8-13.6,6.1-27.6,9.5-41.3.9-3.9,1.6-7.8,2.4-11.7,23.4-5,30.8-11.2,56.3-5.3-1.2,3.1-2.2,6.1-2.9,9.4l-37.1,135.5c-3.6,13.1-6.3,32.5-12.1,44.2-3.8,7.8-11.2,14.4-18.6,18.6-16.9,9.7-49.6,11.1-69.6,13.8-76.5,10.3-158,17-235.2,14.9-51.5-1.4-103-6.9-154.1-12.8-19.2-2.2-38.2-5.2-57.4-7.9-9.3-1.3-19.1-1.6-28.2-4.1-10.4-2.9-18.6-9.2-23.8-18.7-.7-1.4-1.5-2.8-2-4.3-7.5-16.4-10.6-35.7-15-53.1-9.2-36.1-17.8-72.5-25.7-108.9-1.6-8.9-4-17.7-6.3-26.4,16.7,2.9,34.5,5.6,51.5,5,2.7,0,6.8-.3,8.9-2.1,7.4-6.4,1.1-30.4,4.3-33.8,1.3,0,1.4-.3,2.5.4,1.2,3.3,1.1,6.8,1.7,10.2,1,6.1,2.5,12,3.1,18.2,1.9,7.6,3,15.5,4.5,23.2,2.3,11.6,4.8,23.2,7.4,34.8,5.7,1.6,11.2,3.6,17,5,14,3.5,28.4,5.5,42.9,5.9-2.6-9.7-4.2-19.8-5.9-29.6-3.6-20.1-6.9-40.3-11.8-60.1-2.5-10.2-7.6-22.9-17.3-28.5-.2-.1-.4-.2-.6-.4-2.3-1.3-4.7-.8-7.2-.7-5.7-4.4-8.2-14.4-10.2-21-1.3-6.2-1.7-12.2-1.9-18.5Z"/>
  <path class="st5" d="M826.4,688.1c6.4-2.4,14.2-1.3,21-2.8l-37.1,135.5c-3.6,13.1-6.3,32.5-12.1,44.2-3.8,7.8-11.2,14.4-18.6,18.6-16.9,9.7-49.6,11.1-69.6,13.8-76.5,10.3-158,17-235.2,14.9-51.5-1.4-103-6.9-154.1-12.8-19.2-2.2-38.2-5.2-57.4-7.9-9.3-1.3-19.1-1.6-28.2-4.1-10.4-2.9-18.6-9.2-23.8-18.7-.7-1.4-1.5-2.8-2-4.3,1.9.8,3.8,1.4,5.8,1.9,22,6.2,50.9,8.9,74.1,12.2,99.5,14.7,200.1,19.9,300.5,15.5,41.1-1.9,81.8-5,122.3-13,14.7-2.9,34.9-6,47.8-13.4,10.7-6.1,17.9-17.1,23-28,6.2-13.3,8.6-29.2,12.7-43.3l20.6-73.3c3.3-11.7,7-23.4,10.2-35.2Z"/>
  <path class="st5" d="M251.2,584.2c13.8,2.6,27.7,5.5,41.6,7.8,92.6,15.9,186.7,21.6,280.6,17.1,25.2-1.4,50.3-4.1,75.4-6.9,25.9-2.8,51.8-6.4,77.5-10.9,14.7-2.5,29.5-5,43.9-8.7.4,5.4.7,11,0,16.4-16.2,4.3-32.3,8.8-48.8,12-17.3,3.3-34.9,5.3-52.5,7.2-26.2,3.1-52.4,5.4-78.7,7-13.2.8-26.6,1.6-39.8,1.7-7.6,0-20-1.2-27,.4-5.7-1.4-10.2-1.3-15.9,0-9.4-.4-19.1.2-28.5.4-10.5.1-20.9,0-31.4-.4-11.7-.4-23.5-.7-35.1-1.5-7-.4-15.1-2.1-21.9-1.2-3.6-.7-6.8-.7-10.5-.3-7.5-2.1-16.4-2.3-24.2-3.2-12.5-1.4-25-3.1-37.4-5-12.5-2-24.8-4.3-37.2-7-9.4-2.1-18.8-4.8-28.2-6.5-1.3-6.2-1.7-12.2-1.9-18.5Z"/>
  <path class="st23" d="M507.5,627.4c5.7-1.3,10.2-1.4,15.9,0,3.3,1.7,6.1,3.9,8.5,6.7,19.6,21.8,17.7,56.3,17.5,83.6-.1,14.1-.1,28.2-.9,42.3-7,.8-14.3.7-21.3.9-15.5.4-31,.6-46.5.5.5-35-3.7-68.8,6.6-102.9,3.4-11.3,9.2-25.2,20.2-31.1Z"/>
  <path class="st20" d="M514.8,631.6c5.3.4,9,2.3,12.7,6.1,18.1,18.4,16.5,54.5,16.4,78.6l-.4,38.5c-9.1.4-18.3.4-27.4.5l-29.5.2c-.1-32.4-3.5-63.2,6-94.8,2.1-7,4.7-14.2,9-20.2,3.4-4.7,7.5-7.9,13.3-8.8Z"/>
  <path class="st23" d="M380.1,624.5c3.7-.4,6.8-.5,10.5.3,3.1,1.2,5.8,2.9,8.3,5.1,20.2,18,19.9,61.4,21.1,87,.6,14,1.3,27.9,2.1,41.8-20.5-1.9-40.6-4.4-61-7.6-3.5-28.1-10.5-82.9,1.3-108.3,3.8-8.1,9.1-15.1,17.7-18.3Z"/>
  <path class="st20" d="M382.2,629.5c5-.2,8.4.7,12.2,4.1,17.7,15.4,17.8,55,19.2,77l2.5,42.4-17.7-2.1c-10.6-1.5-21.1-2.9-31.6-4.6-3.4-26-10.1-75.9-.1-100.4,3.1-7.6,7.9-13.2,15.5-16.4Z"/>
  <path class="st5" d="M162.4,676.1c16.7,2.9,34.5,5.6,51.5,5,2.7,0,6.8-.3,8.9-2.1,7.4-6.4,1.1-30.4,4.3-33.8,1.3,0,1.4-.3,2.5.4,1.2,3.3,1.1,6.8,1.7,10.2,1,6.1,2.5,12,3.1,18.2-.1.2-.2.4-.3.6-4,7.9,2.3,23.8-7.9,27.5-8.9,3.3-31,1.5-40.9.8-5.4-.4-11.2-1.2-16.5-.5-1.6-8.9-4-17.7-6.3-26.4Z"/>
  <path class="st5" d="M794,681.2c23.4-5,30.8-11.2,56.3-5.3-1.2,3.1-2.2,6.1-2.9,9.4-6.8,1.5-14.5.4-21,2.8-11.5,2.8-23,5-34.8,4.9.9-3.9,1.6-7.8,2.4-11.7Z"/>
  <path class="st23" d="M646.6,622.1c.8,0,1.6,0,2.4,0,5.8.3,11,4,14.7,8.2,17.2,19.9,13.6,52.9,11.5,77.2-1.2,13.7-2.8,27.4-3.8,41.1-12.4,3.2-25.2,4.8-37.9,6.5-9.1.9-18.1,2.1-27,3.7,0-10.9,1.1-22,1.6-32.9,1.4-29.1,1.4-64.8,18.9-89.5,5-7,10.9-12.8,19.7-14.3Z"/>
  <path class="st20" d="M646.9,627.5c.7,0,.8,0,1.6,0,4.3.4,8.4,3.2,11.1,6.4,15.4,18.4,11.8,53.1,10.1,75.5l-2.7,34.7c-10.1,2.8-21.2,3.6-31.6,4.9-7.5,1.3-15.4,1.9-23,2.8.3-9,1-18,1.4-27,1.1-25.6,1.1-55.2,13.2-78.4,4.4-8.4,10.5-16.1,19.9-19Z"/>
  <path class="st23" d="M538.6,779.2h9.1c-.4,34.4-1.5,68.8-3.3,103.3-18.4.1-36.3,1.4-54.9,1.1h-5.6c0-16.8-1.4-33.8-2.1-50.6-.7-17.8-.9-35.6-1.3-53.4,19.4.2,38.7,0,58.1-.3Z"/>
  <path class="st20" d="M538.8,784.7c1.2,0,2-.3,3,.4,1.3,3.3-2.2,82.2-2.7,91.8-16.3.8-32.6,1-48.9.8l-.8-.3c-1-2.7-.6-12.7-.8-16.3-1-25.2-1.7-50.5-2-75.7,17.4.1,34.8,0,52.2-.7Z"/>
  <path class="st23" d="M663.4,773.3c2.4-.2,4.8-.3,7.3-.4l-11.8,102.5c-6.5.5-13,1.9-19.5,2.7-11.3,1.5-22.6,2.4-34,2.8l-6.9.2c0-12.8,1.9-25.9,2.7-38.7,1.4-21.9,2.1-43.9,4.3-65.8,7,.1,14-.5,21-.9l37-2.3Z"/>
  <path class="st20" d="M658.3,778.7c2-.4,4.3-.3,6.4-.5-3.3,30.7-6.2,61.6-10.8,92.1-14,2.1-27.9,3.6-42,4.6l-8,.4c3.3-30.8,4.5-61.8,5.9-92.8,16.2-1,32.4-2.3,48.5-3.8Z"/>
  <path class="st23" d="M359.7,770.2c21.6,2.7,43,5.6,64.8,7.4,0,13.6,1.2,27.3,2.2,40.9,1.4,20.7,3.1,41.4,5,62-19.8-1.1-39.9-2.3-59.5-5.6-2.8-13.2-4.1-27-5.9-40.4-2-14.5-3.7-29-5.2-43.6-.6-6.8-1.6-13.9-1.4-20.8Z"/>
  <path class="st20" d="M365.9,777c17.4,2.2,35,3.6,52.4,6,2.2,30.5,4.6,61,7.3,91.5-16.2-1.2-32.4-2.7-48.5-4.6-2.2-9.2-3-19.1-4.2-28.5-2.7-21.4-5.1-42.9-6.9-64.4Z"/>
  <path class="st23" d="M250.9,755.5c19.8,4.3,39.9,7.4,60.1,9.4,3.9,34.8,9.8,69.3,17.7,103.3-18.2-2.3-36.3-6.8-54-11.6-9.9-31.7-20.6-68-23.9-101.1Z"/>
  <path class="st20" d="M256.8,762.5c16.4,3.5,32.8,5.6,49.4,8,1.5,19.4,4.6,39,8.4,58.1,2.2,11.1,4.8,22,6.8,33.2-14.1-2.2-28.3-6.7-42.2-10.3-11.7-28.1-14.9-59.7-22.3-89Z"/>
  <path class="st23" d="M775.7,752.3c.2,0,.4,0,.5,0,1.7.1,2.7.7,3.8,2,1.4,5.4-12.2,65.8-14.3,73.5-2.2,8-4.9,17-8.8,24.3-15.2,8.7-31.2,14-48.3,17.4-1.4.2-2.4.6-3.8,0,0-3.7.9-7.9,1.4-11.6,1.3-9.5,2.8-19,4.5-28.5,3.5-20.5,6.9-41.2,9.3-61.9,17.9-2.7,35.3-5.4,53.1-9.2.5-2.5,1-3.9,2.6-6Z"/>
  <path class="st20" d="M771.6,764.1l.2.2c.5,4.7-1.5,11.3-2.3,16.1-2.4,14.3-8,53-15.4,64.9-5.6,9-32.2,15.4-43,18-.3-.4-.4-.9-.4-1.4,0-5.8,3.2-19.8,4.3-26.2,3.5-20.9,7.3-42,9.9-63,15.7-2.6,31.3-4.8,46.7-8.6Z"/>
  <path class="st18" d="M272.2,533.3c7.5,1.9,15.2,3.2,22.8,4.7,2.8.5,6.8.9,9.3,2,28.2,3.8,56.3,8.8,84.6,11.8,72.2,7.5,144.9,8.9,217.3,4.2,34.6-2.6,69.2-6,103.7-10.3,12.2-1.5,31.2-5.9,42.5-5.6,9.7,6.2,13.6,17.6,15.8,28.4.5,2.4.9,4.9,1.2,7.4-25.9,5.2-52,9.8-78.1,13.8-100.9,15.3-203.3,18-304.9,7.9-29.1-3-58-6.8-86.9-11.4-15.3-2.5-32.9-6.9-48.2-7.8.2-2.4.3-4.8.8-7.1,2.4-12.8,5.8-24.5,15-34.1,1.6-1.3,3.2-2.7,5-3.8Z"/>
  <path class="st6" d="M272.2,533.3c7.5,1.9,15.2,3.2,22.8,4.7,2.8.5,6.8.9,9.3,2,28.2,3.8,56.3,8.8,84.6,11.8,72.2,7.5,144.9,8.9,217.3,4.2,34.6-2.6,69.2-6,103.7-10.3,12.2-1.5,31.2-5.9,42.5-5.6,9.7,6.2,13.6,17.6,15.8,28.4.5,2.4.9,4.9,1.2,7.4-25.9,5.2-52,9.8-78.1,13.8-100.9,15.3-203.3,18-304.9,7.9-29.1-3-58-6.8-86.9-11.4-15.3-2.5-32.9-6.9-48.2-7.8.2-2.4.3-4.8.8-7.1v.9c.6.3.7.4,1.3.6,5.1,1.9,12,2.2,17.5,3.1,16,2.6,32.1,5,48.2,7.1,18.5,2.5,37,5.3,55.6,7.2,44.9,4.4,90,6.6,135.2,6.5,19.8.2,39.5,0,59.3-.8,48.7-2.1,104.5-8.4,152.1-18.2,8.9-1.8,33.1-5.9,40-9.6,1-.5,1.1-.7,1.4-1.8,1.3-5.4-6.8-18.8-9.5-23.3-7.4,0-15.3,2-22.6,3.4-8.3,1.6-16.6,3.1-25,4.3-14,2.1-28.2,3.7-42.3,5.4-18.2,2.4-36.4,4.3-54.7,5.7-73.4,5.3-147.2,3.2-220.2-6.2-27.8-3.5-55.2-9.7-83-13.2-4.2.3-35-3.9-38.2-5.3,1.6-1.3,3.2-2.7,5-3.8Z"/>
  <path class="st12" d="M434.6,447.5c14.3-37.2,13.1-80.7-11.3-113.5-5.9-8-16.7-17.5-19.5-26.9-1-3.4-.6-6.7,1.2-9.7,9.7-16.5,65.9-34.4,84.7-42.6,10.7-4.7,26.1-13.9,36.6-16.8,4.4-1.2,8.7-1.1,12.6,1.2,6.1,3.6,8.5,10.6,10.2,17-2.1.1-3.5-.1-5.5-.9-.2,0-.4-.2-.6-.2l-1.2.6c-1,.9-.8,1.8-.9,3.1-.7,8.1,0,18.2,1.7,26.3,2,18.2,7.5,35.8,14.8,52.5-4.6,10.4-5.9,21.2-6.9,32.4-10.5,1.1-25.1,1.9-32.3,10.7-3.3,4-4.2,9-3.5,14,.6,4.3,2.7,7.4,5.8,10.3-3,4.2-5.2,8.8-7.3,13.5-6.2,17.5-11.1,36.8-20,53.2-19,10.6-49.9,14.3-70.8,8.3-.4-.1-.8-.2-1.2-.3,4.4-10.7,8.7-21.6,13.3-32.2Z"/>
  <path class="st24" d="M513.3,418.5c-6.2,17.5-11.1,36.8-20,53.2-19,10.6-49.9,14.3-70.8,8.3-.4-.1-.8-.2-1.2-.3,4.4-10.7,8.7-21.6,13.3-32.2.2,0,.3.1.5.2,3.3.8,7.7.3,11.1.1,17.6-1.1,35.3-6.1,49.9-16.1,5.6-3.8,10.4-9.7,16.3-12.8.3-.1.5-.3.8-.4Z"/>
  <path class="st23" d="M423.2,295.2c.3.3.6.5.8.8.5,1.3.4,3.5.6,4.9.7,4.1,2,8.8,3.8,12.5,7.2,14.9,19.7,26.9,25.7,42.2,4.1,10.3,6.4,29.8,2,40.2-1.4-27.9-5-38.9-21-61.7-5.1-7.3-10-14.9-12.6-23.5-1.6-5.3-1.9-10.3.8-15.4Z"/>
  <path class="st9" d="M537.6,402.7c17.5-2.2,63.6-8.2,77.2,2.6,10.1,8,14.2,22.3,15.3,34.5,1.4,14.9-2.3,29.5,1.3,44.3,6.5,21.9,22.6,39.6,32.4,60.1-58.5,6.5-117.4,9-176.3,7.6-11.5-.3-27.8,0-38.8-1.8-1-1.2-1.4-2.2-1.3-3.7.3-9.4,11.7-22.5,17.9-29.2l.8-.8c12.2-15,25.8-26.8,34.8-44.4,9.8-19.4,14.3-45.6,25-62.8,2.9-4.6,6.9-5.2,11.9-6.4Z"/>
  <path class="st19" d="M631.3,484.2c6.5,21.9,22.6,39.6,32.4,60.1-58.5,6.5-117.4,9-176.3,7.6-11.5-.3-27.8,0-38.8-1.8-1-1.2-1.4-2.2-1.3-3.7.3-9.4,11.7-22.5,17.9-29.2.5.3,1,.7,1.6,1,1.6.6,14.4-.9,17.1-1,7.1-.2,14.6.1,21.5,1.4,16.1,2.9,30.6,10.3,45.5,16.6,19.6,8.2,42.6,14,63.7,9.1,5.3-1.2,9.8-3.6,13.1-8l.6-1.7c3.6-6.6-4.7-40.7,3-50.3Z"/>
  <path class="st12" d="M466,516.4c12.2-15,25.8-26.8,34.8-44.4,9.8-19.4,14.3-45.6,25-62.8,2.9-4.6,6.9-5.2,11.9-6.4-4.4,11-10.7,21.1-15,32.3-11.1,29.1-9.1,43.6-33.4,67.7-4.8,4.7-10.6,10.3-16.9,13-2,.9-4.1,1.5-6.3.7Z"/>
  <path class="st23" d="M617,455.8c0,8.1-1.2,16.2-1.4,24.3-.2,13.1,1.9,26.7,6.4,39,1.9,5.2,4.3,10.2,6.3,15.5l-.6,1.7c-2.5-2-4.6-4.3-6.3-7.1-12.7-20.9-9.9-50.7-4.4-73.4Z"/>
  <path class="st12" d="M724.6,362.5c49.8,38,106.1,66.5,166.2,84.2,9.4,2.8,19,4.8,28.5,7.1-10,12.7-18.9,26.4-27.8,39.9-6,9-12.4,17.8-17.8,27.2-14.7-1.2-30.3,2.6-44.6.3-6.5-1.1-12.7-3.9-18.8-6.5-15.6-6.5-32.2-12.8-49.3-10-6,1-12,2.9-16.8,6.7-3.5,2.9-5.7,6.2-7.7,10.2-8.1-23.2-18.4-45.2-29-67.3-4.1-7.6-8.1-15.2-13.2-22.2,8-16.7,15.4-33.6,22.3-50.8,2.5-6.4,5.1-12.7,7.9-19Z"/>
  <path class="st24" d="M724.6,362.5c49.8,38,106.1,66.5,166.2,84.2,9.4,2.8,19,4.8,28.5,7.1-10,12.7-18.9,26.4-27.8,39.9-6,9-12.4,17.8-17.8,27.2-14.7-1.2-30.3,2.6-44.6.3-6.5-1.1-12.7-3.9-18.8-6.5-15.6-6.5-32.2-12.8-49.3-10-6,1-12,2.9-16.8,6.7-3.5,2.9-5.7,6.2-7.7,10.2-8.1-23.2-18.4-45.2-29-67.3,7,2.1,19.4,10.7,26.8,14.5,21.3,10.8,53.7,22.7,77.4,26.6,14.7,2.4,31.2,2.1,43.7-7,6.7-4.9,11.9-12.4,13.1-20.8.7-4.9.2-13-3.4-16.8-3.9-4.2-25.2-12.8-31.9-16.2-12.4-6.3-24.8-12.7-37.1-19.3-5.7-3.1-11.1-6.5-16.7-9.7-9.1-5.2-18.2-10.2-26.9-16.1-5.8-4-15.5-14.1-21.9-15.4-2.6-.6-5.6-.2-8.3-.2-1.6,2.5-3.1,6.1-5.7,7.5,2.5-6.4,5.1-12.7,7.9-19Z"/>
  <path class="st8" d="M354.3,129.6c4.6-.3,8.9.3,13.2,2,6.9,2.7,12.1,8.5,15.2,15.2,1.5,3.3,2.5,6.8,2.7,10.4.6,9.4-5.4,10.3-8.1,17.7l.5.8c2.6.2,5.2-3.5,12.8-2.2,3.8.6,7.7,2.4,10,5.7,1.5,2.2,1.9,4.6,2,7.2.5,10.8-6,10.7-6.8,16.6-.1,1,0,.9.6,1.6,4.5.1,6.8-6,12.3-6.3,3.6-.2,6.9,1.6,9.5,4,3.9,3.7,6.1,8.7,6.2,14.1.1,8.6-4.1,14.6-9.7,20.6-2.2-.7-4.5-1.4-6.8-1.2-1.2.1-1.5,0-2.3,1,1.1,3.5,7.5,6.3,10.3,8.6,1.6,1.3,2.9,2.8,4.2,4.3-21.7,3.7-43.5,8.9-65.5,10.3-8.5.5-17.1.8-25.6.7-8.4-.1-17-1.1-25.3.1-7.1,1-13.3,3.5-19.5,6.8-5.5,3.3-9.9,7.7-14.9,11.6-2.2-.6-4.5-1.2-6.5-2.3-5.6-3.1-9.5-8.9-11.2-15-2.7-10,1-21.9,10.2-27.3,2.7-1.6,8.8-2.3,10.3-4.8l-.4-.9.3.8c-.2-.3-.3-.7-.6-.9-.7-.7-12-2.6-14.3-3.7-6.9-3.1-12-8.9-14.7-15.9-2.6-6.9-1.9-14.2,1.2-20.9,3.6-7.6,10.1-13.4,18-16.1,11.2-3.8,19.7,0,29.6,4.9-2-4.7-4.4-7.1-8.3-10.2,1.9-3.1,4.2-5.9,7-8.2,5.3-4.3,12.3-7.1,19.2-6.2,5.1.6,13.5,4.7,16.3,9.4,1.3,2.1,1.7,5.1,3.3,7,.5.6.4.4,1.3.4.1-.2.3-.4.4-.7,1.3-4.6-2.7-10.8-4.9-14.6,1.2-3.5,2.5-6.6,4.6-9.7,5.8-8.6,14.3-12.7,24.3-14.5Z"/>
  <path class="st23" d="M324.5,201.6c2.9-.2,5.7-.3,8.6.4,8.2,1.8,14.3,7.1,18.6,14.1,4.4,7.1,8.5,16.8,6.2,25.3-.5,1.9-1.4,4.8-3.2,5.9l-.2-1.3c.5-4.3,0-8.5-1-12.7-3.4-12.7-12.1-26-26.1-28.1-2.6-.4-7.4.6-9.4-.6l.3-.7c2-1.1,3.9-1.6,6.1-2.2Z"/>
  <path class="st23" d="M357.5,211.1c3.2-.4,5.9-.3,8.8,1.3,4.7,2.6,7.6,7.5,8.9,12.5,1.5,5.7.8,11.4-2.2,16.4l-1.1.5c-1-.9-.4-3-.3-4.4.3-4.9-.1-9.4-2.1-13.9-1.9-4.3-5.4-6.5-9.7-8.2-1.1-.4-1.8-.7-2.7-1.6-.2-1.2-.1-1.4.4-2.6Z"/>
  <path class="st11" d="M409,257.2l13.1-2.3c2.1,3.9,4.5,13.1,9.3,14.1.6.1.8,0,1.4,0l1,1c-12.1,6.2-31.7,14.1-36.3,28-1.9,5.6-1.5,10.9,1.2,16.2,5.2,10,13.9,18,20.4,27.1,20.4,29.1,21.4,64.9,11.2,98-4.3,13.7-9.5,27.1-15.8,40.1-3.3-16.2-7.8-48-22.3-57.3-5.6-3.6-11.6-3.7-17.9-2.1-.8.2-1.6.4-2.5.6-5-14.3-8.8-34-15.1-46.9,2.9-2.2,5.7-4.3,8.2-7-1.4-5.6-2.5-10.4-5.9-15.2-.4-.3-.7-.5-1.2-.7-2.5-1-34.3,11.9-39,13.7-1.5-25.6-8.1-56.6-25.8-75.9,2.7,8.9,7.1,17.1,10.2,25.9,6.1,17.1,8.8,34,11.2,51.8-6.4,1.9-12.6,4.5-18.9,6.8.2-3,.4-5.9.5-8.9.9-27.3-6.8-59-25.7-79.2,9.8-6.4,11.7-11.8,24.4-16.1,11.2-3.8,22.7-2.2,34.3-2,7.7,0,15.6-.2,23.3-.9,19-1.7,37.8-5.5,56.6-8.9Z"/>
  <path class="st5" d="M409,257.2l13.1-2.3c2.1,3.9,4.5,13.1,9.3,14.1.6.1.8,0,1.4,0l1,1c-12.1,6.2-31.7,14.1-36.3,28-1.9,5.6-1.5,10.9,1.2,16.2,5.2,10,13.9,18,20.4,27.1,20.4,29.1,21.4,64.9,11.2,98-4.3,13.7-9.5,27.1-15.8,40.1-3.3-16.2-7.8-48-22.3-57.3-5.6-3.6-11.6-3.7-17.9-2.1-.8.2-1.6.4-2.5.6-5-14.3-8.8-34-15.1-46.9,2.9-2.2,5.7-4.3,8.2-7-1.4-5.6-2.5-10.4-5.9-15.2,11.8,1.9,12,15.1,14.1,24.4,1.5,6.5,3.6,14.1,7.4,19.7,5,7.4,13.6,10.2,20.1,15.9,9.1,7.9,12,20,12.8,31.6,1.4-9.6,3.2-19.2,3.8-28.8,1.1-17.3-2.1-35.4-7.5-51.8-2-6.3-4.7-12.3-7.8-18.1-9.9-17.7-23.2-33.5-18.5-55.2,1.8-8.1,6-15.7,12.8-20.5,2.9-2,6.1-3.6,9-5.6,1.7-1.2,3.4-3.1,3.7-5.2,0-.3,0-.6,0-.8Z"/>
  <path class="st15" d="M570.8,275.2c11.9-5.7,24.1-11.1,35.5-17.6,10.3-5.9,20-12.9,29.5-20.1,7.4-5.5,14.6-11.1,21.2-17.5,12.4,19.3,21,40.7,33.5,60.1,0,6.2-4.6,17.1-7.4,23-5.4-7.3-16.2-27.2-21.8-31.7,12,21.6,24.6,43.6,40.3,62.7,3.6,3.5,7,6.6,11.4,9.1,0,7,2.3,12.1,6.9,17.3-10.7,21.6-22.3,43.5-30.7,66-5.5-6.6-11.3-12.8-18.1-18-7-5.2-15.4-10.3-24.5-9.8-8.4.5-14.1,6.1-19.4,12-2.6-2.9-5-6.1-7.4-9.1.5-.6,1-1.4,1.3-2.1,2-5.3,1.1-15.3-1.6-20.1-2.6-4.6-6.1-6.4-11-7.7,2-14.1,3.5-34.1-4.2-46.9-3.9-6.5-9.5-8.4-16.4-10.3-2.9.3-5.6.9-8.4,1.7-6.2-12.2-11.3-24.5-16.2-37.3,2.4-1.3,4.9-2.4,7.4-3.5Z"/>
  <path class="st13" d="M701.7,334c3.6,3.5,7,6.6,11.4,9.1,0,7,2.3,12.1,6.9,17.3-10.7,21.6-22.3,43.5-30.7,66-5.5-6.6-11.3-12.8-18.1-18,10.5-7.2,11.8-21.5,15.3-32.7l.3-.9,1.2-1.3c3.7-3.1,7.1-6.3,9.9-10.2,6.7-9.6,5.7-18.4,3.7-29.3Z"/>
  <path class="st13" d="M570.8,275.2c5.3,13.1,10.2,26.8,17.2,39.2-2.9.3-5.6.9-8.4,1.7-6.2-12.2-11.3-24.5-16.2-37.3,2.4-1.3,4.9-2.4,7.4-3.5Z"/>
  <path class="st23" d="M686.8,374.8c-4.9-6.6-9.7-13.4-14.6-19.9-4.2-5.5-24.7-30-25.8-33.7,16.4,14.6,30.9,33.2,41.7,52.3l-1.2,1.3Z"/>
  <path class="st19" d="M334.4,394.1c-8.3,3.2-16.4,7.1-24.6,10.6-12.4,5.4-24.9,10.5-37.5,15.3-34.4,13.3-69.8,24.4-105,35.5-7.2,2.2-28.1,9.6-34.6,9.5-1.7,0-2.8-.4-4-1.7-.6-1.5-.6-2.2-.5-3.8,1.6-2,49.4-15.6,55.6-17.6,40.4-12.6,80.1-27.1,119.2-43.3,17.3-7.2,34.4-14.4,50.8-23.4.6,3,1.4,6.1,2.2,9.1,3.7,13.3,7.4,26.5,11.3,39.7-9.6,6.3-18.6,13.6-29.1,18.4-6,2.7-12,4.9-18.4,6.4-15.6,3.6-33.2,3.7-40.2,21.3-5.1,13-.7,26.3,3.3,39,.9,2.7,2,5.6,2.6,8.4l-.3,2.2c-1,0-.6.1-1.3-.6-.3-.9-.6-1.7-1.2-2.4-1.1-1.7-2.7-2.7-4.6-3.3-9.6-3.2-20.6-4-30.7-5.4-21.9-3.2-43.8-5.6-65.6-9.2-5.9-.9-11.9-1.3-17.8-1.9-4.5-7.7-9.4-15-14.4-22.3-1.8-1.9-3.4-4.5-5.1-6.6,34.5-9,68.8-20.6,102.3-32.7,19.9-7.2,40.4-14.3,59.5-23.5,9.6-4.7,20.1-10.2,28-17.5Z"/>
  <path class="st4" d="M334.4,394.1c-8.3,3.2-16.4,7.1-24.6,10.6-12.4,5.4-24.9,10.5-37.5,15.3-34.4,13.3-69.8,24.4-105,35.5-7.2,2.2-28.1,9.6-34.6,9.5-1.7,0-2.8-.4-4-1.7-.6-1.5-.6-2.2-.5-3.8,1.6-2,49.4-15.6,55.6-17.6,40.4-12.6,80.1-27.1,119.2-43.3,17.3-7.2,34.4-14.4,50.8-23.4.6,3,1.4,6.1,2.2,9.1-2.1.7-4.2,1.4-6.1,2.6-4.2,2.6-7.7,6.5-11.3,9.8-5.5,5-11.3,10.1-17.2,14.5-7.4,5.6-15.8,9.7-24.3,13.3-26.8,11.5-58.9,22.1-86.8,31.1-7,2.3-59.6,17.8-60.5,18.8-1.8-1.9-3.4-4.5-5.1-6.6,34.5-9,68.8-20.6,102.3-32.7,19.9-7.2,40.4-14.3,59.5-23.5,9.6-4.7,20.1-10.2,28-17.5Z"/>
  <path class="st17" d="M272.2,499.3c-1.4-7.6-3.1-15.5-3.2-23.2,0-6.3,1.2-12.3,5.9-16.8,3.1-3,7.2-5,11.3-6.5,10.1-3.5,21.2-4.4,31.7-6.4,6.4-1.3,13.9-4,20.3-4-6,2.7-12,4.9-18.4,6.4-15.6,3.6-33.2,3.7-40.2,21.3-5.1,13-.7,26.3,3.3,39,.9,2.7,2,5.6,2.6,8.4l-.3,2.2c-1,0-.6.1-1.3-.6-.3-.9-.6-1.7-1.2-2.4-1.1-1.7-2.7-2.7-4.6-3.3-9.6-3.2-20.6-4-30.7-5.4-21.9-3.2-43.8-5.6-65.6-9.2,3.1-1.2,7-1.4,10.3-1.9,26.7-4.3,53.5-1.2,80.1,2.5Z"/>
  <path class="st22" d="M296.4,532.4c-3.9-12.8-12.9-37.5-13.1-49.9,0-4.3.9-8.7,3-12.5,3.6-6.4,10-9.6,16.8-11.3,5.6-1.4,11.4-2.2,17-3.5,10.1-2.3,20.3-6.3,29.3-11.4,8.6-4.9,18.5-14.8,27.4-17.7,4.3-1.4,8.3-.9,12.2,1.5,10.3,6.2,12.9,21.9,15.3,32.7,5.1,23.2,7.8,46.6,21,66.8,5.3,8.1,11.9,15.2,17.3,23.2-30.8-3.1-61.5-5.9-92.2-9.8-9.5-1.2-21.1-1.9-30.3-3.9l-1.4-.2c-7.4-.9-15.1-2-22.3-3.8Z"/>
  <path class="st14" d="M318.7,536.2c-8.2-13.2-17.1-36-14.2-51.5.8-4.3,2.8-8.2,6.6-10.6,5.5-3.5,12-2,17.9-.6-3.8.6-7.5.4-11.3,1.4-7.6,10.7-7.1,10.2-9.3,23.2,1.8,15.1,8.8,24.8,11.7,38.3l-1.4-.2Z"/>
  <path class="st21" d="M308.4,498.1c-1.1-5.5-1.7-11.6,1-16.7,1.8-3.5,4.6-5.4,8.3-6.5-7.6,10.7-7.1,10.2-9.3,23.2Z"/>
  <path class="st14" d="M399.6,473.3c.6.5,1,.7,1.2,1.4,4.1,16.2-2.3,34.5,7.2,49.9,3,4.9,7.7,8.5,11,13.3,1.5,2.2,2,3.9,1.6,6.5-.1,0-7.3-8.2-8.6-9.5-18-17.5-12.3-38.9-12.4-61.6Z"/>
  <path class="st14" d="M380.6,471.9c1.1,4.8,1,10,1.3,14.9.6,10,2,19.9,5.2,29.4,1.8,5.2,13.1,24.6,13.2,25.9-3.7-2.7-6.8-6.4-9.3-10.2-9.5-14.4-12-31.4-11.4-48.3.1-3.8.1-7.9.9-11.6Z"/>
  <path class="st14" d="M381.8,448.6c3.5,0,6.5.4,9.2,2.8,4.5,4,5.6,10.5,6,16.2-1.3-2.5-2.1-5.2-3.4-7.7-1.6-3.2-4.1-6.9-7.8-8-6.4-1.8-17.5,6.5-23.1,9.7-4.9,2.5-16.2,8-21.6,7.2,1-1.3,11.7-5.3,13.9-6.4,8.8-4.4,17.2-11.5,26.8-13.8Z"/>
  <path class="st7" d="M645.8,405.1c4.5-.4,9.1.9,13.2,2.8,35.8,16.7,63.1,91.6,76,126.9-6.5,1.2-13,2.2-19.5,3.1-14.9,1.6-29.8,3.6-44.7,5.9-8.5-19.2-27.5-41.3-32.5-60.1-2.3-8.6-1.8-17.2-1.5-25.9.5-14.7-.3-28-5.7-41.9,4-5,8.5-8.8,14.7-10.8Z"/>
  <path class="st23" d="M664,432.6c2-.3,4-.3,6,.3,13.2,4.2,26.3,26.8,32.1,38.8,2.7,5.6,10.5,23.3,7.5,29.3-.8,1.6-1.6,1.5-3.2,2-9.3-2.7-18.9-13.6-25.2-20.8-7.8-8.8-22-29.9-21-42,.3-3.3,1.3-5.5,3.9-7.6Z"/>
  <path class="st5" d="M664.7,435.7c.8,0,1.5,0,2.3.2,8.4,1.5,15.2,10.9,19.8,17.4,7,10,22.1,34.9,19.9,46.7-6.5-3-16.4-15.3-21.2-21.3-9-11.2-22.4-28-20.8-43.1Z"/>
  <path class="st9" d="M209.7,510.4c10.8.8,21.4,2.3,32.1,4-.7.7-1.4,1.4-2.1,2.1-7.9,8.1-14.7,17.6-21,27-26.9,40.7-32,79.5-31.2,127.1v.7c-3.1,1.2-24.3-2.7-28.6-3.4-1.1-12-1.7-24-.7-36,3.8-44.3,26.1-86,51.5-121.6Z"/>
  <path class="st9" d="M152.6,503.4c9.7,0,19.7,1.6,29.3,2.8-7.3,9.4-15.2,18.6-21.7,28.6-23.3,35.8-37.7,82-39,124.6,0,1.3.1,2-.7,3.1-7.4,0-16.1-1.7-23.4-3-1.9-16.5-1.2-33.5,1.7-49.9,5.6-31.8,19.2-60,37.3-86.5,4.7-7,9.5-14.8,16.5-19.7Z"/>
  <path class="st24" d="M931.1,436.5c-5.9-1.6-12.1-2.5-18.1-3.7-6.2-1.3-12.4-2.9-18.5-4.7-17.5-5.1-35.7-10.9-52.5-17.9-9.4-3.9-18.5-8.6-27.7-13.1-11.6-5.7-23.2-11.3-34.4-17.7-11.8-6.7-23.2-14.2-34.5-21.6-3.8-2.5-23.1-14.4-24.7-17-.8-1.3-.7-1.5-.3-2.8,1.3-1.1,2.5-1.7,4.1-2,3.8-.7,7.8.7,11.2,2.3,5.5,2.5,10.7,5.8,15.9,8.8,7.7,4.4,15.6,8.7,23.4,12.9,6,3.2,12.4,5.8,18.6,8.6,6,2.8,11.9,5.9,18,8.7l72.7,33.3c16.9,7.7,34.9,15.3,50.5,25.4,2.7,1.9,7.2,5.1,7.3,8.9,0,1.3-.5,2-1.5,2.8-6.7,5.1-38.4-3.8-46.6-6-51.7-14.3-105.3-41.2-149.5-71.3-8.3-5.7-20.3-12.7-25.4-21.6-.3-.5-.4-1-.6-1.6l.6-.3c6,2.5,12.1,8.6,17.5,12.4,9.6,6.7,19.5,13.3,29.4,19.5,37,23,102.3,53.5,145.4,58.5,6.4.7,13.7,1.5,19.9-.6Z"/>
  <path class="st4" d="M208.5,252.5c2.8-.2,5.5-.4,8.1.7,2.7,1.1,4.9,3.4,6,6.1,1.7,4.1.5,9.8-.6,14-10.3,40.2-55.8,45.3-70.1,76.8-10.5,23.1-5.5,52,3.2,74.8l-15.3,6c-3.8,1.7-7.8,3.1-11.7,4.6-10.5-29.2-11.2-65.4,4.8-92.9,4.9-8.4,11.5-15.7,18.7-22.1,11.3-10,25.3-17.1,34.9-28.9,5.8-7.1,11.2-16,14.1-24.7,1.1-3.2,1.6-6.6,2.8-9.8,1-2.7,2.6-3.5,5.1-4.7Z"/>
  <path class="st20" d="M264.2,632.9c.5-1.4.9-2.5,1.9-3.7,1.2-.5,1.5-.6,2.9-.1,5.8,2.1,11.2,16.4,12.9,21.8,4.2,13.1,6.2,26.7,8.7,40.2,2.8,15.5,5.6,31,8.2,46.5-16-1.9-32.8-3.8-47.9-9.7-5.1-22.7-9.1-45.6-13.6-68.4-.7-5-1.8-10-2.7-14.9,11.1-2.1,19.9-6,29.6-11.6Z"/>
  <path class="st18" d="M234.6,644.5c11.1-2.1,19.9-6,29.6-11.6-1.9,8.6-8.8,16.3-16,20.9-3.4,2.2-7.2,3.9-11,5.6-.7-5-1.8-10-2.7-14.9Z"/>
  <path class="st12" d="M186.3,506.9c6.1,1.1,12.2,2.2,18.4,3.3-25.8,38.8-48.9,83.4-50.4,131-.3,8.7.7,17.3,1.6,25.9-3-.5-6-.8-9-1.2-7.4-1.1-14.9-1.3-22.3-2.6-.2-7.5.6-15,1.6-22.4,4.3-35.4,16.2-71,35.4-101.2,7.3-11.6,16.4-22,24.8-32.8Z"/>
  <path class="st4" d="M767.3,509.7c4.6-.2,9,.5,13.2,2.2,5.4,2.2,10,5.7,14.2,9.7,22.7,21.7,18.4,50.6,30.5,76.3,6.2,13.1,14.8,24.7,22.2,37.1,4.4,7.4,7.9,15.2,11.2,23.1-10.1-3.5-18.6-6.2-29.3-6.2-2.2.1-4.5.4-6.7.7-3.4-18.9-12.5-26.4-17.9-42.8-5.3-15.9-6.4-33-11.3-48.9-3.8-12.2-10.5-28.1-22.6-34.2-6.7-3.3-15.8-3.9-21.7,1.5-2.1,2-3.4,4.3-6.3,5.2-1.3-.4-1.2-.4-1.9-1.5-.3-4.4,2-10.8,4.8-14.1,5.2-6.2,14-7.4,21.6-8Z"/>
  <path class="st4" d="M355.5,356.4c0,0,.2,0,.3,0,2.5,1.1,3.4,6.4,4.1,8.9-12.2,9.1-34.1,17.3-48.5,23.3-60.5,25.1-122.3,47.1-185,66-1.6-.9-3.2-1.7-4.1-3.4-.9-1.6-1.3-3.4-.6-5.2.9-2.5,3.2-4,5.5-5.1,4.4-2,9.2-3.3,13.7-4.9,9.3-3.1,18.6-6.3,27.9-9.6l112.9-41.4c24.7-9,50.2-17.1,73.9-28.7Z"/>
  <path class="st5" d="M259.7,320.1c.5,0,1,0,1.5-.1,9-.4,17.6,1.1,24.5,7.4,3.6,12.9,4.9,28.1,4.1,41.4-12.9,4-10.4,8-18.5,12.5-9.8,5.4-21.4,8.9-32,12.7-7.3,2.9-14.7,5.6-22.1,8.3.8-13.4,5-37.1,15.3-46.7,4.8-4.5,10.7-8,14.5-13.5,4-5.6,4-13.1,7.5-18.8,1.3-2.1,2.7-2.6,5-3.1Z"/>
  <path class="st14" d="M269.4,339.7c.7.3.8.5,1.2,1.1,1.7,14.4-15.8,18.2-24.1,26.1-5.2,4.9-8.2,11.6-11.3,17.9h-.4c-.5-.5-.5-.2-.5-.9-.2-11,7.1-21.1,16-26.9,3.9-2.6,8.5-4.7,12.1-7.7,3.2-2.6,4.1-6.5,6.9-9.5Z"/>
  <path class="st20" d="M766.1,626.9c2.5,3-7,27.8,4.3,43.8,4.5,6.4,10,9,17.5,10.4-3,16.1-7.5,31.8-10.1,48-8.5,2.1-17.1,3.6-25.7,5.3-6.9,1.5-13.9,2.6-20.9,3.8,4.4-24.3,6.4-49.5,12.9-73.3,3.8-14.1,8.5-30.4,21.9-38.1Z"/>
  <path class="st12" d="M246.4,515.4c8.1.7,16.5,2.1,24.5,3.7-5.4,2.2-10.5,5.2-15,8.8-6,5-11.4,11.4-16.4,17.4-24.1,29.4-22.9,54.5-21.4,90,.5,11.6,1.5,24.5-.2,36-.2,1.3-.4,2-1.4,2.9-8.7-.2-17.3-.8-25.9-1.7,0-.8,0-1.5,0-2.3-1.2-61.4,12.3-109.6,55.8-154.7Z"/>
  <path class="st4" d="M795.1,514.4c8.8,1.3,18.1,7.5,26.4,10.9,4.6,8.2,8.3,16.8,11.1,25.8,3.9,12.7,6.5,28,13.8,39.3,9.4,14.5,27.2,20,37,34.5,3.3,4.9,5.4,10.3,7.6,15.8-2.3,4.7-4.6,9.3-7.5,13.6-1.3,1.7-3,3.5-4.8,4.6-5.1,3.2-10.8,1.7-16.2.4-4.5-17.1-13.9-32-23-46.9-4.1-6.7-8.5-13.5-11.5-20.8-4.3-10.1-5.6-20.8-7.9-31.5-2-9-4.8-17.8-8.9-26.1-3.8-7.8-9.1-14.4-16-19.5Z"/>
  <path class="st11" d="M792.7,253.2c1.5-7.1,1.4-14.5,3.2-21.6.9-3.6,2.5-8.1,6-9.9,2.5-1.4,6.1-.9,8.7,0,9.3,3.4,10.2,14.4,14,22,4.5,8.9,15.2,6.2,23.4,8.7,3.2,1.7,7.1,3.4,8.3,7.1.8,2.6.9,6.9-.6,9.3-1.3,2.2-3.9,3.2-6.3,3.6-5.6,1.1-11.5,1.2-15,6.4-4.7,7.1-1.3,23.4-12.9,25.6-2.3.4-5.6,0-7.5-1.4-1.5-1.2-2.1-3.6-2.4-5.4-1.6-4.7-3.8-9.4-6.2-13.7-5.7-10.1-14.4-18.8-26.9-18-3,.2-6.2,1.4-9.2.6-.8-.9-.7-.9-.7-2.2,3.7-6.2,17.3-6.9,23.5-10.9.2-.1.3-.2.5-.3Z"/>
  <path class="st2" d="M848,252.4c3.2,1.7,7.1,3.4,8.3,7.1.8,2.6.9,6.9-.6,9.3-1.3,2.2-3.9,3.2-6.3,3.6-5.6,1.1-11.5,1.2-15,6.4-4.7,7.1-1.3,23.4-12.9,25.6-2.3.4-5.6,0-7.5-1.4-1.5-1.2-2.1-3.6-2.4-5.4,2.3-8.5,1.5-18.3,5.3-26.4,5.4-11.5,20.7-8.3,28.4-15.1,1.2-1,1.9-2.5,2.7-3.9Z"/>
  <path class="st4" d="M825.1,526c7.2,1.5,14,1.6,21.3,1.5,8.5,13.8,13.1,33.1,22.3,45.3,4.2,5.6,9.5,9,15.5,12.4,17.6,10.2,28.6,17.8,34.2,38.4l-8.6,4.6c-5.4,2.8-10.6,6-15.7,9.2l-.2-.7c-6.3-18.3-15.7-25.5-30.8-36.6-4.6-3.4-9.1-6.9-12.3-11.8-4.9-7.6-7.2-16.5-9.7-25.1-3.8-13.3-7.7-25.9-15.9-37.2Z"/>
  <path class="st4" d="M774.4,635.2c.4-7.5,2.5-14.9,3.5-22.3,3.1-22.8,3.6-55.5-12.6-73.9-3.2-3.6-7-6-11.5-7.5l.2-.4c4.3-1.5,9.7-.9,13.8,1,10.3,4.8,16.6,18.1,20.1,28.3,5.8,16.7,7,34.6,12.5,51.4,3.4,10.2,9.9,18.1,14.1,27.7,2,4.5,3,9,4,13.8-7.6,1.8-26.2,7.6-32.9,3.2-3.9-2.5-5.3-7.9-6-12.2-1-5.8-1.2-11.8-2.1-17.6-.2,2.2-.1,5.2-.9,7.3-1-1.6-.6-2.3-.3-4.2l-1,.5h.8c-.4,1.4-.8,2.7-1.4,4l-.4.9Z"/>
  <path class="st12" d="M141.2,502.5c1.8-.1,3.6-.3,5.1.7-7.9,11.5-16.6,22.3-24,34.2-4.1,6.6-7.3,13.8-10.6,20.8-16.4,34.9-20.3,62.7-18.2,100.9-3.4-.9-6.6-1.9-9.8-3.3-2.6-1.6-4.9-3.1-6.5-5.8-6.5-11-2.1-33.7.8-45.3,7.6-30.1,36.1-86.1,63.1-102.3Z"/>
  <path class="st24" d="M561.4,251c22.3-10.4,54.9-27.1,72.5-44.2,1.6-1.5,3.4-3.3,4.6-5.2,1.2-2,2-4.7,3.6-6.3,1.7-1.7,6-1,8-.2,3,1.2,5.9,3.4,7.2,6.5,1.2,3.1.6,6.7-.8,9.6-6.2,12.7-48.1,39-61.9,46.6-8.8,4.9-17.9,9.1-27.2,13.1l-6.1,2.6c-2.1-6.6-3.7-13.3-5.2-20,1.8-.9,3.6-1.7,5.4-2.5Z"/>
  <path class="st15" d="M555.9,253.5c1.8-.9,3.6-1.7,5.4-2.5,2.7,6.6,4.6,12.8,5.9,19.8l-6.1,2.6c-2.1-6.6-3.7-13.3-5.2-20Z"/>
  <path class="st4" d="M856.9,527.2c4.6-.3,9.2-.4,13.9.3,5,9.3,6.4,20.3,11.7,29.3,5.9,10.1,20.1,12.5,29.9,17.2,6,2.9,11.6,6.6,16.8,10.6,3.5,2.7,7.2,5.8,7.7,10.5.7,7.3-5.5,16.1-10.1,21.3l-4.2,4.1c-7-19.5-15.8-28.6-33.7-38.3-6.4-3.5-12.2-6.8-16.8-12.6-5.7-7.1-8.6-16.5-12.5-24.7-2.9-6.2-6.5-11.9-10.5-17.5l7.8-.3Z"/>
  <path class="st4" d="M774.5,272.6c1.8-.2,3.7-.3,5.5-.3,5.8.2,10,2.3,13.8,6.6,13.3,15.1,14.9,43.1,16.8,62.6,1,9.5,2.2,19.1,1.6,28.7l-10-5c-6.8-3.3-13.7-6.3-20.6-9.3,2.3-8.8,6.3-17,8.5-25.9,4.3-17.7,2-32.8-10.1-46.9-2.5-3-6.8-5.5-8.7-8.7.9-1.1,2.1-1.4,3.4-1.9Z"/>
  <path class="st5" d="M469.4,487.4c5.6-1.8,11.3-3.4,16.8-5.4-13.9,20.3-33.8,34.9-43.9,58l-7.2-9.4c-10.2-13.3-14.4-27-18-43.1,18.1,3.7,34.2,3.9,52.3-.1Z"/>
  <path class="st18" d="M469.4,487.4c5.6-1.8,11.3-3.4,16.8-5.4-13.9,20.3-33.8,34.9-43.9,58l-7.2-9.4c3.8-4.1,7-9,10.6-13.2,6.8-8.1,21.1-19.6,23.6-30Z"/>
  <path class="st13" d="M690.5,280.1c16.7,22.7,31.1,33.4,54.8,47.8,8.5,5.2,18.3,10.6,25.6,17.3-2,.6-3,1.1-4.4,2.6-12.2-4.2-31.4-20.9-44.4-16.8-4.4,1.4-6.2,4.5-8.3,8.3-12.3-9-21.8-24-30.7-36.3,2.8-5.9,7.4-16.7,7.4-23Z"/>
  <path class="st19" d="M541.2,379.3c11.3-2.5,62-4.7,70.9,1.2,1.9,1.2,3,3.6,3.3,5.7.3,2,.2,4,.1,6-.9,1.2-1.7,2.6-2.7,3.7-7.4-1-14.7-2.2-22.2-2.5-17.1-.7-34,1.5-51,2.6-2.8.3-13.4,3-15.5,1.6-1.6-1.1-2.9-4.2-3.2-6.1-.3-2,.3-3.7,1.5-5.2,4.2-5.3,12.4-6.3,18.7-7Z"/>
  <path class="st12" d="M539.6,396.1c-2.8.3-13.4,3-15.5,1.6-1.6-1.1-2.9-4.2-3.2-6.1-.3-2,.3-3.7,1.5-5.2,4.2-5.3,12.4-6.3,18.7-7l.6.5c-.6.8-1.2,1.2-2,1.7-1.9,1.3-3.5,2.9-3.9,5.3-.6,3.6,1.7,6.5,3.7,9.2Z"/>
  <path class="st4" d="M875.9,528.4c13,3.8,16.7,13.6,27.2,19.5,14,7.9,32.9,6.1,44.5,18.8,2.2,2.5,5.3,6.2,4.9,9.7-.3,3-3.5,4.6-5.7,6.1-2.3,1.6-4.3,3.6-6.4,5.4-8.3-8.6-17.7-15.8-29-20.1-4.8-1.8-9.9-3.2-14.6-5.4-13.5-6.3-16.2-21.2-20.9-34Z"/>
  <path class="st17" d="M776.6,633.9c-.2,7.8-1.5,18.2,2.4,25.3,6.5,11.7,24.7,5.2,34.8,2.9,6.2-1.4,12.9-2.8,19.3-2.5,10.4.5,20,5.6,30,8.3,5.5,1.5,11,2,16.3-.3,10.8-4.6,12.7-15.6,20.4-23.2,5-5,12.3-7.5,18.4-11.1,14.9-8.8,22.4-17.3,26.8-34,.4,4,.7,7.9,0,11.9-4.3,22.1-28,24.6-41,39-6.4,7.1-8,18.7-16.3,23.8-13.3,8.3-37.4-6.9-52.1-8.2-15.9-1.4-37.3,10.4-49.4,7.3-4-1-6.9-3.7-8.9-7.3-4.7-8.2-5.2-21.7-2.9-30.7l.4-.9c.6-1.3,1-2.6,1.4-4h-.8s1-.5,1-.5c-.3,1.8-.7,2.5.3,4.2Z"/>
  <path class="st4" d="M89.7,413.9c1.5,0,2.9.4,4.2-.3.6-2.5.3-5,.5-7.6.5-6.6,4.8-12.4,10.4-15.8,2.8-1.7,5.5-2.7,8.7-3.4,0,8,.6,15.7,1.6,23.6-11.1,11.6-15.5,22.3-20.9,37.1-1.1,3-2.4,6.1-3.7,9.1-3.5-4.9-8-9-11.9-13.7-4.2-5.2-7.2-11.2-6.3-18.1.4-3.3,1.9-7.2,4.8-9.2,3.7-2.5,8.4-2.3,12.6-1.7Z"/>
  <path class="st17" d="M90.5,456.6c-3.5-4.9-8-9-11.9-13.7-4.2-5.2-7.2-11.2-6.3-18.1.4-3.3,1.9-7.2,4.8-9.2,3.7-2.5,8.4-2.3,12.6-1.7-1.6,0-3.8-.2-5.2.6-2.5,4.4-1.6,9.3-.3,14,1.9,7.2,5.7,13.1,10,19.1-1.1,3-2.4,6.1-3.7,9.1Z"/>
  <path class="st12" d="M585.6,321.1c.9,0,1.7,0,2.6,0,3.9.4,7.4,2.6,9.7,5.6,8.3,10.8,5.9,30.4,4.2,42.9l-7.2-.9c.4-8.4,1.2-20.8-4.1-28-.9-1.2-2-2.1-3.6-2.2-2.6-.1-4.7,2.1-6.4,3.8-5.6,8.2-7.1,16.3-6.5,26-5.7.1-11.5.5-17.2.7.4-11.3,1.8-21.3,7.7-31.1,4.9-8.2,11.1-14.6,20.6-17Z"/>
  <path class="st0" d="M635.7,196.5l.7.3c.2,1,0,1.1-.5,1.9-2.2,3.5-6.4,6.6-9.6,9.2-17.3,14-36.2,24.1-55.8,34.4-4.6,2.5-10.4,6.6-15.4,7.7l-.7-1.1c-1.2-3.3-2.8-6.5-4.3-9.7,10.1-7.1,21.1-13,32-18.7,17.6-9.3,34.5-17.9,53.5-24Z"/>
  <path class="st15" d="M427,254.4c11.4-2.9,22.8-5.4,33.6-10.1,8-3.5,16-9.4,24.4-11.5,3.7-.9,8-.8,11.5,1.1,3.1,1.7,5,4.7,6.9,7.6-12.5,5.3-24.8,10.8-37.4,15.8-10.7,4.3-21.7,7.9-32.2,12.8l-1-1c-1.8-4.9-3.8-9.8-5.9-14.6Z"/>
  <path class="st2" d="M95,473.7c10.4-.3,21.2,9.7,29.2,15.5-1.1,5.6-1.7,11.3-1.8,17.1-3,3.3-5.6,6.9-8.3,10.5l-4.2,5.2c-4.6-4.9-8.8-10-12.2-15.8-5.4-9.2-9-20.3-6.2-31,1.2-1.4,1.7-1.2,3.4-1.5Z"/>
  <path class="st12" d="M116.2,419.8c2.3,1.9,3.7,8.3,5.1,11.2,1,1.9,2.4,3.5,3.8,5.1-2.7,1.6-5.5,3.2-7.5,5.6-1.6,1.9-2.3,4.1-2,6.5.5,5,4.5,8.4,6.6,12.7.9,1.9,1.3,4.1,2.5,5.8.8,1.2,2.1,2.1,3.1,3-1,4.5-1.7,9-2.5,13.5-1.9-1.6-4-3.1-6-4.6-8.5-6.1-15.8-9.8-26.1-11.3,1.4-4.4,3.3-8.7,5.1-12.9,5.1-12.4,10.4-23.5,18-34.6Z"/>
  <path class="st12" d="M541.9,255.7l1.2-.6c.2,0,.4.2.6.2,2,.7,3.4,1,5.5.9,4,15.2,8.4,29.3,14.8,43.6,2.9,6.4,6.5,12.5,9.3,18.9-5.2,3.9-9,7.9-12.6,13.3-7.3-12.7-10.9-26.9-14.1-41.1-.8-3.8-.9-9.3-2.4-12.8-.8-7.4-2.2-14.9-2.3-22.4Z"/>
  <path class="st2" d="M914.7,471.5l.9-.8.8.4c2.5,6.6,2.7,19-.2,25.4-3.5,7.8-9,14.3-14,21.2-2.4,3.3-4.6,6.8-7,10.1-3.6-1.6-7.2-3.1-10.6-4.9-1.4-.6-2.6-.7-3.5-2,5.6-8.5,11.7-16.5,17.4-25,5.4-8.1,10.1-16.9,16.3-24.4Z"/>
  <path class="st6" d="M914.7,471.5l.9-.8.8.4c2.5,6.6,2.7,19-.2,25.4-3.5,7.8-9,14.3-14,21.2-2.4,3.3-4.6,6.8-7,10.1-3.6-1.6-7.2-3.1-10.6-4.9,7.1-5.2,14.9-11.9,20-19.2,5.6-8,11.9-22.3,10.2-32.2Z"/>
  <path class="st3" d="M238.2,605.3c-4.8-15.4-.8-39,6.6-53.1,5.6-10.6,16.4-22.7,28-26.7l2.1-.7c-4.1,4.2-9.5,5.5-13.8,9.3-12.7,11.3-17.3,36.3-17.2,52.4.2,15,3.3,31.1,14.2,42.1l-7.7,3.8c-2.9,1.4-6,2.4-9,3.5-1.7-8.3-5.3-21.8-4.5-30.1.8-.4.4-.2,1.3-.5Z"/>
  <path class="st16" d="M238.2,605.3c2.7,5,6.5,10.1,8.6,15.4,1.5,3.8,1.4,8.2,3.7,11.7-2.9,1.4-6,2.4-9,3.5-1.7-8.3-5.3-21.8-4.5-30.1.8-.4.4-.2,1.3-.5Z"/>
  <path class="st2" d="M134.3,469.6c.7,0,1.5-.1,2.3,0,1.8.2,3,1.4,4.2,2.7,2.9,3.2,5.2,7.2,7.6,10.8,2.9,4.4,6,8.5,9.4,12.5-3.2-.2-6.3-.4-9.5-.6-7.6-.1-12.8,1.6-19.2,5.5,1.2-7.2,3.1-25.2,5.3-30.9Z"/>
  <path class="st16" d="M226.2,638.2c-.2-15.4-.7-30.7.5-46.1,1.8,0,3.6,0,5.4.4.9,15.1,2.6,29.2,6.6,43.9-4.1.9-8.3,1.5-12.5,1.8Z"/>
  <path class="st4" d="M153.7,393.1c5.8,3.8,19,17.7,22.4,23.6-1,1.2-2.6,1.5-4,2.1l-11.7,4.2c-3.7-9.1-5.7-20.1-6.6-29.8Z"/>
  <path class="st12" d="M585.1,342.3c.7.2,1.1.4,1.7.9,4.3,3.9,3.7,19.7,3.7,25.3h-7.2c0,0-6-.1-6-.1,0-2.2,0-4.4.2-6.5.3-7.1,2.2-14.6,7.6-19.5Z"/>
  <path class="st10" d="M235.3,563.4c-2,9.8-3.5,19-3.2,29.1-1.8-.3-3.6-.3-5.4-.4,1.3-10.4,3.6-19.4,8.6-28.7Z"/>
  <path class="st10" d="M285.5,517.5c1.7,4.6,3.1,9.2,4.5,13.9-4.4-.8-8.8-1.6-13.3-1.9,4.3-3,5.9-5.2,7.2-10.4.7.7.3.5,1.3.6l.3-2.2Z"/>
  <path class="st1" d="M771,345.2l6.9,3.1c-.6,1.6-1,3.1-2.6,4.1-1.4.3-2.4.3-3.7-.4-1.9-1.2-3.6-2.5-5.1-4.1,1.4-1.6,2.5-2,4.4-2.6Z"/>
  <path class="st23" d="M528.9,101.1c3.5-.2,6.3.2,9,2.6,6.9,6.2,5.8,19.9,6.2,28.3,4.6.9,9.4,1.6,13.9,3.1,4.1,1.3,7.7,3,9.6,7.1,1.5,3.4,1.7,7.6.2,11-3,6.9-11.1,9.6-17.6,12,.9,6.9,3.2,14,2,20.9-.8,4.9-3,10.7-7.4,13.5-2.8,1.8-6.4,2.1-9.6,1.3-8.4-2.2-13.6-10.2-17.6-17.4-.2,0-.3.1-.5.2l-.7.3c-7.2,3.2-13.6,10.1-21.5,11.3-2.7.4-5.4-.1-7.5-1.9-10.5-8.6,3.3-20.3,2.5-29.3-.5-5.7-14.9-9.8-15.8-20.6-.2-3.1.9-5.8,2.9-8.1,7.5-8.6,20.2-7.8,30.6-8.4,1.7-5.1,3.4-10.1,6.2-14.6,3.6-6,8.2-9.9,15.1-11.5Z"/>
  <path class="st11" d="M509.7,130.8c4-7.9,7.2-20,15.7-24.5,2.1-1.1,4.4-1.4,6.7-.7,11.1,3.4,4.1,21.2,8.7,28.5,2,3.1,9.6,3.8,13,4.4l1.5.5c3.1.9,6,2.2,7.7,5.1,1,1.7,1.3,3.8.8,5.7-.2.9-.7,1.7-1.2,2.5-5.5,5.8-13.4,7.2-19.2,12.4,2.9,7.7,5.3,17.3,1.7,25.3-1.1,2.5-3.2,5.3-6,6.3-1.8.6-3.7.3-5.3-.7-3.1-1.8-6.1-5.9-7.6-9.1-2.1-3.2-4.6-7.6-8.6-8.7-6.6-1.9-14.5,8.2-19.7,11.2-1.8,1-4.2,2.1-6.3,1.3-7.3-2.8,3.1-19.8,3-25.3-.2-8.7-13.3-11.3-15.5-19-.7-2.3,0-4.7,1.1-6.7,4.6-8.3,20.8-5.9,28.9-8.2l.7-.2Z"/>
  <path class="st20" d="M553.8,138.4l1.5.5c3.1.9,6,2.2,7.7,5.1,1,1.7,1.3,3.8.8,5.7-.2.9-.7,1.7-1.2,2.5-5.5,5.8-13.4,7.2-19.2,12.4,2.9,7.7,5.3,17.3,1.7,25.3-1.1,2.5-3.2,5.3-6,6.3-1.8.6-3.7.3-5.3-.7-3.1-1.8-6.1-5.9-7.6-9.1,1.2.7,2.5,1.6,3.9,1.5,5.4-.3,3.3-12.4,4.6-17.3,2.4-9.4,9.7-15.2,15.7-22.2,3-3.6,3.7-5.3,3.4-9.9Z"/>
  <path class="st18" d="M555.3,138.9c3.1.9,6,2.2,7.7,5.1,1,1.7,1.3,3.8.8,5.7-.2.9-.7,1.7-1.2,2.5l-.5-1.7c-1.3-4.7-4.2-7.2-6.6-11.1l-.2-.4Z"/>
  <path class="st23" d="M706.6,109.6c23.5-2,15.4,25,22.5,34.9,4,5.6,12.3,8,17.7,12.3,3.2,2.5,7,6.6,7.3,10.9.2,3-.8,6.2-2.8,8.4-6.2,7-19.7,5.5-28.1,5.8-6.3,4.4-10.1,13-15.5,18.7-1.2,1-2.6,2.1-4,2.9-4.3,2.4-9.1,2.7-13.8,1.2-3.8-1.2-7-3.4-8.8-7.1-4.7-9.9,1.3-22.1,4.3-31.5-2.6-4.2-6.3-6.6-9.5-10.1-2.7-3-5.4-7.5-5.1-11.7.2-2.4,1.4-4.5,3.1-6,5.7-5,13.7-4.1,20.6-3.6,2.7-9,3.2-19.5,11.8-25.1Z"/>
  <path class="st19" d="M714.4,183.6c-3.2,5.1-8.5,14.6-14.6,16.8-3.4,1.3-6.7.8-9.9-.8-6.7-3.2-6.9-9.8-5.5-16.3,1.1-5.2,4.2-10,5-15.2,1.4-9.1-11.4-13.3-13.8-21.5-.4-1.4-.4-3,.5-4.2,3.8-5.1,13.4-3.3,18.9-4.2,5.1-.8,6.1-17.2,9.8-22.1,1.2-1.5,2.8-2.8,4.8-3,2.8-.2,4.7,1.1,6.6,2.8,6.5,8.8,4.8,21.6,8.8,31.7.7.6,1.4,1.3,2.1,1.9,5,4.9,21.7,11.1,21.9,19,0,1.7-.7,3.1-2,4.2-1.5,1.3-3.6,2-5.5,2.7-7.6,1.9-15.2.8-22.8,2.3-1.7,1.8-3,3.6-4.4,5.6Z"/>
  <path class="st4" d="M716.3,116.1c6.5,8.8,4.8,21.6,8.8,31.7-2.5-1.5-3.7-4.6-4.8-7.2-2.4-5.8-6.4-18.7-4-24.4Z"/>
  <path class="st4" d="M714.4,183.6c-.4-.9-.5-1.8-.4-2.8.1-1.5.9-2.9,2.2-3.8,5.7-3.9,18.9-2.7,25.4-1.3-7.6,1.9-15.2.8-22.8,2.3-1.7,1.8-3,3.6-4.4,5.6Z"/>
  <path class="st23" d="M875.1,291.6c10.4-.9,15,7.3,20.8,14.4.8,1,2.4,3.1,3.5,3.8,5.7,3.4,18.4-4,28.8,4.2,1.6,1.3,2.8,2.9,3,5,.7,7.8-7.7,13.9-11.8,19.5-5.6,7.6,1.3,17,2.1,25.2.4,3.6-.1,7.9-2.7,10.7-2.5,2.7-6.3,3.4-9.8,3.5-10.9-1.4-16.8-12.1-25.2-17.7-7.8.2-16.8,4.4-24.4,2.2-3.1-.9-5.5-2.8-7-5.7-1.2-2.3-1.7-4.8-1.2-7.4,2.1-9.9,15.2-14.5,18.2-24,2.9-8.9-4-19.1-.9-27.8,1.2-3.4,3.6-4.6,6.7-6Z"/>
  <path class="st19" d="M857.3,355.8c0-.1-.1-.2-.2-.3-.6-.9-1.2-1.8-1.4-3-1.1-7.1,10.3-15,14.2-20,7-9,3.2-17.4,2.1-27.2-.3-2.6-.4-5.7,1.5-7.8,1.3-1.4,3.2-1.7,4.9-1.6,8.3.4,11.9,10.7,17,15.8,5.3,5.3,13.2,2.9,19.9,2.8,3.2.3,7.5.6,9.7,3.3,1.1,1.3,1.3,3,1,4.6-1.5,8.1-13.1,11.8-13.4,20.8-.3,8.6,10.9,22.3,1.1,28.8-1.9,1.3-4.1,1.8-6.3,1.2-9.4-2.2-14-14.7-23-17.2-9.1-2.6-19.1,6.9-27.1-.2Z"/>
  <path class="st10" d="M915.2,314.5c3.2.3,7.5.6,9.7,3.3,1.1,1.3,1.3,3,1,4.6-1.5,8.1-13.1,11.8-13.4,20.8-.3,8.6,10.9,22.3,1.1,28.8-1.9,1.3-4.1,1.8-6.3,1.2-9.4-2.2-14-14.7-23-17.2-9.1-2.6-19.1,6.9-27.1-.2,8.7-.2,17.3-3,26-2.9,6.4,0,12.4,3.3,18.5-.3.3-.2.6-.4.9-.7,4.2-3.5,1.5-9.5,3.4-14,3.3-7.7,11-5.9,14.6-19.1-1.6-2-3-3.5-5.5-4.3Z"/>
</svg>